# Blender v2.92.0 OBJ File: 'room.blend'
# www.blender.org
mtllib room2.mtl
o Plane_Plane.001
v -5.447103 -0.000601 5.191610
v 4.346698 -0.000601 5.191610
v -5.447103 -0.000601 -4.602190
v 4.346698 -0.000601 -4.602190
v -5.447103 6.078219 5.191610
v -5.447103 6.078219 -4.602190
v 4.346698 6.078219 -4.602190
v -5.635429 -0.188928 -4.790517
v -5.635429 -0.188928 5.191610
v 4.346698 -0.188928 5.191610
v 4.346698 -0.188928 -4.790517
v -5.635429 6.078219 -4.790517
v -5.635429 6.078219 5.191610
v 4.346698 6.078219 -4.790517
vt 0.000000 1.000000
vt 1.000000 1.000000
vt 0.000000 1.000000
vt 0.000000 0.000000
vt 0.000000 0.000000
vt 1.000000 0.000000
vt 0.000000 1.000000
vt 0.000000 0.000000
vt 1.000000 1.000000
vt 0.000000 1.000000
vt 0.000000 0.000000
vt 1.000000 1.000000
vt 1.000000 1.000000
vt 1.000000 0.000000
vn 0.0000 0.0000 -1.0000
vn -1.0000 0.0000 0.0000
vn 0.0000 1.0000 0.0000
vn 0.0000 0.0000 1.0000
vn 1.0000 0.0000 0.0000
vn 0.0000 -1.0000 0.0000
usemtl wall
s off
f 6/1/1 4/2/1 3/3/1
f 5/4/2 3/3/2 1/5/2
f 10/6/3 8/7/3 9/8/3
f 11/9/4 12/10/4 8/7/4
f 8/7/5 13/11/5 9/8/5
f 4/2/2 14/12/2 11/9/2
f 6/1/6 14/12/6 7/13/6
f 1/5/1 10/6/1 9/8/1
f 1/5/1 13/11/1 5/4/1
f 6/1/6 13/11/6 12/10/6
f 4/2/2 10/6/2 2/14/2
f 6/1/1 7/13/1 4/2/1
f 5/4/2 6/1/2 3/3/2
f 10/6/3 11/9/3 8/7/3
f 11/9/4 14/12/4 12/10/4
f 8/7/5 12/10/5 13/11/5
f 4/2/2 7/13/2 14/12/2
f 6/1/6 12/10/6 14/12/6
f 1/5/1 2/14/1 10/6/1
f 1/5/1 9/8/1 13/11/1
f 6/1/6 5/4/6 13/11/6
f 4/2/2 11/9/2 10/6/2
usemtl floor
f 3/3/6 2/14/6 1/5/6
f 3/3/6 4/2/6 2/14/6
o Plane.001_Plane.002
v -5.434195 2.490084 -0.441647
v -5.436090 2.497838 -3.174749
v -5.434195 5.223187 -0.433893
v -5.436090 5.230941 -3.166996
v -5.399201 5.223187 -0.433917
v -5.399201 2.490084 -0.441671
v -5.401096 2.497838 -3.174774
v -5.401096 5.230941 -3.167020
vt 0.000000 1.000000
vt 1.000000 0.000000
vt 0.000000 0.000000
vt 1.000000 0.000000
vt 0.000000 1.000000
vt 0.000000 0.000000
vt 1.000000 1.000000
vt 1.000000 1.000000
vn -1.0000 -0.0000 0.0007
vn 1.0000 0.0000 -0.0007
vn 0.0007 -0.0028 1.0000
vn 0.0000 1.0000 0.0028
vn -0.0000 -1.0000 -0.0028
vn -0.0007 0.0028 -1.0000
usemtl picture
s off
f 17/15/7 16/16/7 15/17/7
f 21/18/8 19/19/8 20/20/8
f 15/17/9 19/19/9 17/15/9
f 17/15/10 22/21/10 18/22/10
f 16/16/11 20/20/11 15/17/11
f 18/22/12 21/18/12 16/16/12
f 17/15/7 18/22/7 16/16/7
f 21/18/8 22/21/8 19/19/8
f 15/17/9 20/20/9 19/19/9
f 17/15/10 19/19/10 22/21/10
f 16/16/11 21/18/11 20/20/11
f 18/22/12 22/21/12 21/18/12
