# Blender v2.92.0 OBJ File: 'room.blend'
# www.blender.org
mtllib pic.mtl
o Plane.001_Plane.002
v -1.717383 2.490083 -4.561837
v -4.450480 2.497839 -4.555894
v -1.709627 5.223186 -4.561849
v -4.442724 5.230942 -4.555905
v -1.709703 5.223186 -4.596842
v -1.717459 2.490083 -4.596831
v -4.450556 2.497839 -4.590888
v -4.442800 5.230942 -4.590899
v -1.709703 5.223186 -4.596842
v -1.717459 2.490083 -4.596831
v -4.450556 2.497839 -4.590888
v -4.442800 5.230942 -4.590899
vt 0.000000 1.000000
vt 1.000000 0.000000
vt 0.000000 0.000000
vt 1.000000 1.000000
vt 0.000000 1.000000
vt 1.000000 1.000000
vt 0.000000 1.000000
vt 1.000000 1.000000
vt 0.000000 0.000000
vt 1.000000 0.000000
vt 1.000000 0.000000
vt 0.000000 0.000000
vn 0.0022 -0.0000 1.0000
vn 0.0000 0.0000 1.0000
vn 1.0000 -0.0028 -0.0022
vn 0.0028 1.0000 0.0000
vn -0.0028 -1.0000 -0.0000
vn -1.0000 0.0028 0.0022
vn -0.0022 0.0000 -1.0000
usemtl picture
s off
f 3/1/1 2/2/1 1/3/1
f 8/4/2 9/5/2 12/6/2
f 1/3/3 5/7/3 3/1/3
f 3/1/4 8/4/4 4/8/4
f 2/2/5 6/9/5 1/3/5
f 4/8/6 7/10/6 2/2/6
f 11/11/7 9/5/7 10/12/7
f 6/9/2 11/11/2 10/12/2
f 7/10/2 12/6/2 11/11/2
f 5/7/2 10/12/2 9/5/2
f 3/1/1 4/8/1 2/2/1
f 8/4/2 5/7/2 9/5/2
f 1/3/3 6/9/3 5/7/3
f 3/1/4 5/7/4 8/4/4
f 2/2/5 7/10/5 6/9/5
f 4/8/6 8/4/6 7/10/6
f 11/11/7 12/6/7 9/5/7
f 6/9/2 7/10/2 11/11/2
f 7/10/2 8/4/2 12/6/2
f 5/7/2 6/9/2 10/12/2
