# Blender v2.92.0 OBJ File: 'combine.blend'
# www.blender.org
mtllib leg.mtl
o Cylinder
v -0.506409 2.968840 -0.853075
v -0.506409 2.054506 -0.853076
v -0.506994 2.054506 -0.853016
v -0.506994 2.968840 -0.853016
v -0.507557 2.054506 -0.852842
v -0.507557 2.968840 -0.852842
v -0.508076 2.054506 -0.852558
v -0.508076 2.968840 -0.852558
v -0.508530 2.054506 -0.852177
v -0.508530 2.968840 -0.852177
v -0.508903 2.054506 -0.851712
v -0.508903 2.968840 -0.851712
v -0.509181 2.054506 -0.851182
v -0.509181 2.968840 -0.851182
v -0.509351 2.054506 -0.850607
v -0.509351 2.968840 -0.850607
v -0.509409 2.054506 -0.850008
v -0.509409 2.968840 -0.850008
v -0.509351 2.054506 -0.849410
v -0.509351 2.968840 -0.849410
v -0.509181 2.054506 -0.848835
v -0.509181 2.968840 -0.848835
v -0.508903 2.054506 -0.848305
v -0.508903 2.968840 -0.848304
v -0.508530 2.054506 -0.847840
v -0.508530 2.968840 -0.847839
v -0.508076 2.054506 -0.847458
v -0.508076 2.968840 -0.847458
v -0.507557 2.054506 -0.847175
v -0.507557 2.968840 -0.847175
v -0.506994 2.054506 -0.847000
v -0.506994 2.968840 -0.847000
v -0.506409 2.054506 -0.846941
v -0.506409 2.968840 -0.846941
v -0.505824 2.054506 -0.847000
v -0.505824 2.968840 -0.847000
v -0.505261 2.054506 -0.847175
v -0.505261 2.968840 -0.847175
v -0.504742 2.054506 -0.847458
v -0.504742 2.968840 -0.847458
v -0.504287 2.054506 -0.847840
v -0.504287 2.968840 -0.847839
v -0.503914 2.054506 -0.848305
v -0.503914 2.968840 -0.848304
v -0.503637 2.054506 -0.848835
v -0.503637 2.968840 -0.848835
v -0.503466 2.054506 -0.849410
v -0.503466 2.968840 -0.849410
v -0.503409 2.054506 -0.850008
v -0.503409 2.968840 -0.850008
v -0.503466 2.054506 -0.850607
v -0.503466 2.968840 -0.850607
v -0.503637 2.054506 -0.851182
v -0.503637 2.968840 -0.851182
v -0.503914 2.054506 -0.851712
v -0.503914 2.968840 -0.851712
v -0.504287 2.054506 -0.852177
v -0.504287 2.968840 -0.852177
v -0.504742 2.054506 -0.852558
v -0.504742 2.968840 -0.852558
v -0.505261 2.054506 -0.852842
v -0.505261 2.968840 -0.852842
v -0.505824 2.054506 -0.853016
v -0.505824 2.968840 -0.853016
vt 1.000000 1.000000
vt 1.000000 0.500000
vt 0.968750 0.500000
vt 0.968750 1.000000
vt 0.937500 0.500000
vt 0.937500 1.000000
vt 0.906250 0.500000
vt 0.906250 1.000000
vt 0.875000 0.500000
vt 0.875000 1.000000
vt 0.843750 0.500000
vt 0.843750 1.000000
vt 0.812500 0.500000
vt 0.812500 1.000000
vt 0.781250 0.500000
vt 0.781250 1.000000
vt 0.750000 0.500000
vt 0.750000 1.000000
vt 0.718750 0.500000
vt 0.718750 1.000000
vt 0.687500 0.500000
vt 0.687500 1.000000
vt 0.656250 0.500000
vt 0.656250 1.000000
vt 0.625000 0.500000
vt 0.625000 1.000000
vt 0.593750 0.500000
vt 0.593750 1.000000
vt 0.562500 0.500000
vt 0.562500 1.000000
vt 0.531250 0.500000
vt 0.531250 1.000000
vt 0.500000 0.500000
vt 0.500000 1.000000
vt 0.468750 0.500000
vt 0.468750 1.000000
vt 0.437500 0.500000
vt 0.437500 1.000000
vt 0.406250 0.500000
vt 0.406250 1.000000
vt 0.375000 0.500000
vt 0.375000 1.000000
vt 0.343750 0.500000
vt 0.343750 1.000000
vt 0.312500 0.500000
vt 0.312500 1.000000
vt 0.281250 0.500000
vt 0.281250 1.000000
vt 0.250000 0.500000
vt 0.250000 1.000000
vt 0.218750 0.500000
vt 0.218750 1.000000
vt 0.187500 0.500000
vt 0.187500 1.000000
vt 0.156250 0.500000
vt 0.156250 1.000000
vt 0.125000 0.500000
vt 0.125000 1.000000
vt 0.093750 0.500000
vt 0.093750 1.000000
vt 0.062500 0.500000
vt 0.028269 0.341844
vt 0.471731 0.158156
vt 0.158156 0.028269
vt 0.062500 1.000000
vt 0.031250 0.500000
vt 0.031250 1.000000
vt 0.000000 0.500000
vt 0.985388 0.296822
vt 0.514611 0.203179
vt 0.796822 0.014612
vt 0.341844 0.471731
vt 0.250000 0.490000
vt 0.296822 0.485388
vt 0.203179 0.485389
vt 0.158156 0.471731
vt 0.080295 0.419706
vt 0.116663 0.449553
vt 0.050447 0.383337
vt 0.010000 0.250000
vt 0.014612 0.296822
vt 0.014611 0.203179
vt 0.028269 0.158156
vt 0.050447 0.116663
vt 0.080294 0.080294
vt 0.116663 0.050447
vt 0.250000 0.010000
vt 0.203178 0.014612
vt 0.341844 0.028269
vt 0.296822 0.014612
vt 0.419706 0.080294
vt 0.383337 0.050447
vt 0.449553 0.116663
vt 0.490000 0.250000
vt 0.485388 0.203178
vt 0.485388 0.296822
vt 0.471731 0.341844
vt 0.419706 0.419706
vt 0.449553 0.383337
vt 0.383337 0.449553
vt 0.000000 1.000000
vt 0.703179 0.485389
vt 0.796822 0.485388
vt 0.750000 0.490000
vt 0.883337 0.449553
vt 0.841844 0.471731
vt 0.949553 0.383337
vt 0.919706 0.419706
vt 0.971731 0.341844
vt 0.985388 0.203178
vt 0.990000 0.250000
vt 0.971731 0.158156
vt 0.949553 0.116663
vt 0.919706 0.080294
vt 0.883337 0.050447
vt 0.841844 0.028269
vt 0.703178 0.014612
vt 0.750000 0.010000
vt 0.616663 0.050447
vt 0.658156 0.028269
vt 0.550447 0.116663
vt 0.580294 0.080294
vt 0.528269 0.158156
vt 0.514612 0.296822
vt 0.510000 0.250000
vt 0.550447 0.383337
vt 0.528269 0.341844
vt 0.580295 0.419706
vt 0.616663 0.449553
vt 0.658156 0.471731
vn -0.1002 0.0000 -0.9950
vn -0.2962 0.0000 -0.9551
vn -0.4797 0.0000 -0.8774
vn -0.6428 0.0000 -0.7660
vn -0.7799 0.0000 -0.6258
vn -0.8860 0.0000 -0.4637
vn -0.9586 0.0000 -0.2847
vn -0.9954 0.0000 -0.0958
vn -0.9954 0.0000 0.0958
vn -0.9586 -0.0000 0.2847
vn -0.8860 0.0000 0.4636
vn -0.7799 -0.0000 0.6258
vn -0.6427 -0.0000 0.7661
vn -0.4797 -0.0000 0.8774
vn -0.2962 -0.0000 0.9551
vn -0.1002 -0.0000 0.9950
vn 0.1004 -0.0000 0.9949
vn 0.2960 -0.0000 0.9552
vn 0.4794 -0.0000 0.8776
vn 0.6427 -0.0000 0.7661
vn 0.7799 -0.0000 0.6258
vn 0.8860 0.0000 0.4636
vn 0.9586 0.0000 0.2847
vn 0.9954 0.0000 0.0959
vn 0.9954 0.0000 -0.0959
vn 0.9587 0.0000 -0.2843
vn 0.8863 0.0000 -0.4631
vn 0.7799 0.0000 -0.6258
vn 0.6428 0.0000 -0.7660
vn 0.4792 0.0000 -0.8777
vn 0.0000 1.0000 0.0000
vn 0.2960 0.0000 -0.9552
vn 0.1002 0.0000 -0.9950
vn 0.0000 -1.0000 0.0000
vn -0.2960 0.0000 -0.9552
vn -0.6427 0.0000 -0.7661
vn -0.7800 0.0000 -0.6257
vn -0.2960 -0.0000 0.9552
vn -0.1006 -0.0000 0.9949
vn 0.2962 -0.0000 0.9551
vn 0.7796 -0.0000 0.6262
vn 0.9588 -0.0000 0.2842
vn 0.9587 0.0000 -0.2844
vn 0.7797 0.0000 -0.6261
vn 0.6427 0.0000 -0.7661
vn 0.4796 0.0000 -0.8775
vn 0.0000 1.0000 0.0034
vn 0.0000 1.0000 -0.0046
vn 0.0000 1.0000 0.0023
vn 0.0000 1.0000 0.0014
vn -0.0000 1.0000 0.0003
vn 0.0000 1.0000 0.0001
vn 0.0000 1.0000 -0.0023
vn -0.0000 1.0000 -0.0062
vn 0.0000 1.0000 -0.0034
vn -0.0000 1.0000 -0.0010
vn 0.0000 1.0000 0.0007
vn 0.0000 1.0000 -0.0007
vn 0.0000 1.0000 0.0006
vn 0.0000 1.0000 -0.0009
vn 0.2962 0.0000 -0.9551
vn 0.0000 -1.0000 -0.0017
vn 0.0000 -1.0000 0.0003
vn 0.0000 -1.0000 0.0017
vn 0.0000 -1.0000 -0.0008
vn 0.0000 -1.0000 0.0009
vn 0.0000 -1.0000 -0.0003
vn 0.0000 -1.0000 -0.0002
usemtl black.002
s off
f 1/1/1 2/2/1 3/3/1
f 4/4/2 3/3/2 5/5/2
f 6/6/3 5/5/3 7/7/3
f 8/8/4 7/7/4 9/9/4
f 10/10/5 9/9/5 11/11/5
f 12/12/6 11/11/6 13/13/6
f 14/14/7 13/13/7 15/15/7
f 16/16/8 15/15/8 17/17/8
f 18/18/9 17/17/9 19/19/9
f 20/20/10 19/19/10 21/21/10
f 22/22/11 21/21/11 23/23/11
f 24/24/12 23/23/12 25/25/12
f 26/26/13 25/25/13 27/27/13
f 28/28/14 27/27/14 29/29/14
f 30/30/15 29/29/15 31/31/15
f 32/32/16 31/31/16 33/33/16
f 34/34/17 33/33/17 35/35/17
f 36/36/18 35/35/18 37/37/18
f 38/38/19 37/37/19 39/39/19
f 40/40/20 39/39/20 41/41/20
f 42/42/21 41/41/21 43/43/21
f 44/44/22 43/43/22 45/45/22
f 46/46/23 45/45/23 47/47/23
f 48/48/24 47/47/24 49/49/24
f 50/50/25 49/49/25 51/51/25
f 52/52/26 51/51/26 53/53/26
f 54/54/27 53/53/27 55/55/27
f 56/56/28 55/55/28 57/57/28
f 58/58/29 57/57/29 59/59/29
f 60/60/30 59/59/30 61/61/30
f 54/62/31 22/63/31 38/64/31
f 62/65/32 61/61/32 63/66/32
f 64/67/33 63/66/33 2/68/33
f 15/69/34 47/70/34 31/71/34
f 1/1/1 3/3/1 4/4/1
f 4/4/35 5/5/35 6/6/35
f 6/6/3 7/7/3 8/8/3
f 8/8/36 9/9/36 10/10/36
f 10/10/37 11/11/37 12/12/37
f 12/12/6 13/13/6 14/14/6
f 14/14/7 15/15/7 16/16/7
f 16/16/8 17/17/8 18/18/8
f 18/18/9 19/19/9 20/20/9
f 20/20/10 21/21/10 22/22/10
f 22/22/11 23/23/11 24/24/11
f 24/24/12 25/25/12 26/26/12
f 26/26/13 27/27/13 28/28/13
f 28/28/14 29/29/14 30/30/14
f 30/30/38 31/31/38 32/32/38
f 32/32/39 33/33/39 34/34/39
f 34/34/17 35/35/17 36/36/17
f 36/36/40 37/37/40 38/38/40
f 38/38/19 39/39/19 40/40/19
f 40/40/20 41/41/20 42/42/20
f 42/42/41 43/43/41 44/44/41
f 44/44/22 45/45/22 46/46/22
f 46/46/42 47/47/42 48/48/42
f 48/48/24 49/49/24 50/50/24
f 50/50/25 51/51/25 52/52/25
f 52/52/43 53/53/43 54/54/43
f 54/54/27 55/55/27 56/56/27
f 56/56/44 57/57/44 58/58/44
f 58/58/45 59/59/45 60/60/45
f 60/60/46 61/61/46 62/65/46
f 6/72/47 1/73/47 4/74/47
f 1/73/48 6/72/48 64/75/48
f 64/75/49 6/72/49 62/76/49
f 62/76/50 58/77/50 60/78/50
f 58/77/31 54/62/31 56/79/31
f 54/62/51 50/80/51 52/81/51
f 50/80/31 54/62/31 48/82/31
f 48/82/52 54/62/52 46/83/52
f 46/83/53 38/64/53 44/84/53
f 44/84/31 38/64/31 42/85/31
f 42/85/50 38/64/50 40/86/50
f 38/64/54 34/87/54 36/88/54
f 34/87/55 30/89/55 32/90/55
f 30/89/31 26/91/31 28/92/31
f 26/91/56 22/63/56 24/93/56
f 22/63/31 18/94/31 20/95/31
f 18/94/31 22/63/31 16/96/31
f 16/96/31 22/63/31 14/97/31
f 14/97/31 10/98/31 12/99/31
f 10/98/50 6/72/50 8/100/50
f 62/76/31 6/72/31 58/77/31
f 58/77/57 6/72/57 54/62/57
f 38/64/58 22/63/58 34/87/58
f 34/87/59 22/63/59 30/89/59
f 30/89/60 22/63/60 26/91/60
f 14/97/31 22/63/31 10/98/31
f 10/98/51 22/63/51 6/72/51
f 54/62/31 38/64/31 46/83/31
f 6/72/31 22/63/31 54/62/31
f 62/65/61 63/66/61 64/67/61
f 64/67/33 2/68/33 1/101/33
f 63/102/34 3/103/34 2/104/34
f 3/103/34 7/105/34 5/106/34
f 7/105/62 11/107/62 9/108/62
f 11/107/34 7/105/34 13/109/34
f 13/109/34 7/105/34 15/69/34
f 15/69/34 19/110/34 17/111/34
f 19/110/34 15/69/34 21/112/34
f 21/112/63 15/69/63 23/113/63
f 23/113/34 31/71/34 25/114/34
f 25/114/34 31/71/34 27/115/34
f 27/115/34 31/71/34 29/116/34
f 31/71/34 35/117/34 33/118/34
f 35/117/34 39/119/34 37/120/34
f 39/119/64 43/121/64 41/122/64
f 43/121/65 47/70/65 45/123/65
f 47/70/34 51/124/34 49/125/34
f 51/124/64 55/126/64 53/127/64
f 55/126/34 63/102/34 57/128/34
f 57/128/34 63/102/34 59/129/34
f 59/129/34 63/102/34 61/130/34
f 63/102/66 7/105/66 3/103/66
f 31/71/34 47/70/34 35/117/34
f 35/117/67 47/70/67 39/119/67
f 39/119/34 47/70/34 43/121/34
f 47/70/34 63/102/34 51/124/34
f 51/124/34 63/102/34 55/126/34
f 63/102/34 15/69/34 7/105/34
f 15/69/68 31/71/68 23/113/68
f 63/102/34 47/70/34 15/69/34
o chan_Cube.001
v 0.709968 0.476364 -0.362940
v 0.736677 -0.008037 -0.474137
v 0.736677 -0.008037 -0.389649
v 0.709968 0.476364 -0.500846
v 0.821164 -0.008037 -0.474137
v 0.847873 0.476364 -0.500846
v 0.821164 -0.008037 -0.389649
v 0.847873 0.476364 -0.362940
v -1.248589 -0.008037 -0.474137
v -1.221880 0.476364 -0.362940
v -1.248589 -0.008037 -0.389649
v -1.333076 -0.008037 -0.474137
v -1.221880 0.476364 -0.500846
v -1.333076 -0.008037 -0.389649
v -1.359785 0.476364 -0.500846
v -1.359785 0.476364 -0.362940
v 0.736677 -0.008037 0.474137
v 0.709968 0.476364 0.362940
v 0.736677 -0.008037 0.389649
v 0.821164 -0.008037 0.474137
v 0.709968 0.476364 0.500846
v 0.821164 -0.008037 0.389649
v 0.847873 0.476364 0.500846
v 0.847873 0.476364 0.362940
v -1.221880 0.476364 0.362940
v -1.248589 -0.008037 0.474137
v -1.248589 -0.008037 0.389649
v -1.221880 0.476364 0.500846
v -1.333076 -0.008037 0.474137
v -1.359785 0.476364 0.500846
v -1.333076 -0.008037 0.389649
v -1.359785 0.476364 0.362940
vt 0.625000 0.000000
vt 0.375000 0.250000
vt 0.375000 0.000000
vt 0.625000 0.250000
vt 0.375000 0.500000
vt 0.625000 0.500000
vt 0.375000 0.750000
vt 0.625000 1.000000
vt 0.375000 1.000000
vt 0.125000 0.750000
vt 0.125000 0.500000
vt 0.875000 0.500000
vt 0.625000 0.750000
vt 0.375000 0.250000
vt 0.625000 0.000000
vt 0.375000 0.000000
vt 0.375000 0.500000
vt 0.625000 0.250000
vt 0.375000 0.750000
vt 0.625000 0.500000
vt 0.625000 1.000000
vt 0.625000 0.750000
vt 0.125000 0.750000
vt 0.125000 0.500000
vt 0.875000 0.500000
vt 0.375000 0.250000
vt 0.625000 0.000000
vt 0.375000 0.000000
vt 0.375000 0.500000
vt 0.625000 0.250000
vt 0.375000 0.750000
vt 0.625000 0.500000
vt 0.625000 1.000000
vt 0.625000 0.750000
vt 0.125000 0.750000
vt 0.125000 0.500000
vt 0.875000 0.500000
vt 0.625000 0.000000
vt 0.375000 0.250000
vt 0.375000 0.000000
vt 0.625000 0.250000
vt 0.375000 0.500000
vt 0.625000 0.500000
vt 0.375000 0.750000
vt 0.625000 1.000000
vt 0.375000 1.000000
vt 0.125000 0.750000
vt 0.125000 0.500000
vt 0.875000 0.500000
vt 0.625000 0.750000
vt 0.875000 0.750000
vt 0.375000 1.000000
vt 0.875000 0.750000
vt 0.375000 1.000000
vt 0.875000 0.750000
vt 0.875000 0.750000
vn -0.9985 -0.0551 -0.0000
vn 0.0000 -0.0551 -0.9985
vn 0.9985 -0.0551 -0.0000
vn 0.0000 -0.0551 0.9985
vn 0.0000 -1.0000 0.0000
vn 0.0000 1.0000 0.0000
usemtl leg
s 1
f 65/131/69 66/132/69 67/133/69
f 68/134/70 69/135/70 66/132/70
f 70/136/71 71/137/71 69/135/71
f 71/137/72 65/138/72 67/139/72
f 69/135/73 67/140/73 66/141/73
f 68/142/74 72/143/74 70/136/74
f 73/144/71 74/145/71 75/146/71
f 76/147/70 77/148/70 73/144/70
f 78/149/69 79/150/69 76/147/69
f 78/149/72 74/151/72 80/152/72
f 75/153/73 76/147/73 73/154/73
f 80/152/74 77/155/74 79/150/74
f 81/156/69 82/157/69 83/158/69
f 84/159/72 85/160/72 81/156/72
f 86/161/71 87/162/71 84/159/71
f 86/161/70 82/163/70 88/164/70
f 83/165/73 84/159/73 81/166/73
f 88/164/74 85/167/74 87/162/74
f 89/168/71 90/169/71 91/170/71
f 92/171/72 93/172/72 90/169/72
f 94/173/69 95/174/69 93/172/69
f 95/174/70 89/175/70 91/176/70
f 93/172/73 91/177/73 90/178/73
f 92/179/74 96/180/74 94/173/74
f 65/131/69 68/134/69 66/132/69
f 68/134/70 70/136/70 69/135/70
f 70/136/71 72/143/71 71/137/71
f 71/137/72 72/143/72 65/138/72
f 69/135/73 71/137/73 67/140/73
f 68/142/74 65/181/74 72/143/74
f 73/144/71 77/148/71 74/145/71
f 76/147/70 79/150/70 77/148/70
f 78/149/69 80/152/69 79/150/69
f 78/149/72 75/182/72 74/151/72
f 75/153/73 78/149/73 76/147/73
f 80/152/74 74/183/74 77/155/74
f 81/156/69 85/160/69 82/157/69
f 84/159/72 87/162/72 85/160/72
f 86/161/71 88/164/71 87/162/71
f 86/161/70 83/184/70 82/163/70
f 83/165/73 86/161/73 84/159/73
f 88/164/74 82/185/74 85/167/74
f 89/168/71 92/171/71 90/169/71
f 92/171/72 94/173/72 93/172/72
f 94/173/69 96/180/69 95/174/69
f 95/174/70 96/180/70 89/175/70
f 93/172/73 95/174/73 91/177/73
f 92/179/74 89/186/74 96/180/74
