# Blender v2.92.0 OBJ File: 'table.blend'
# www.blender.org
mtllib leg.mtl
o Cube.001
v 1.468373 0.608801 -0.750035
v 1.468373 0.608801 -0.501101
v 1.421815 -0.008873 -0.550204
v 1.421815 -0.008873 -0.700934
v 1.232336 0.608801 -0.501101
v 1.278893 -0.008873 -0.550204
v 1.232336 0.608801 -0.750035
v 1.278893 -0.008873 -0.700934
vt 0.375000 0.000000
vt 0.625000 0.250000
vt 0.625000 0.000000
vt 0.375000 0.500000
vt 0.375000 0.250000
vt 0.375000 0.750000
vt 0.625000 0.500000
vt 0.625000 1.000000
vt 0.625000 0.750000
vt 0.125000 0.750000
vt 0.125000 0.500000
vt 0.875000 0.500000
vt 0.375000 1.000000
vt 0.875000 0.750000
vn 0.9972 -0.0752 -0.0000
vn 0.0000 -0.0792 0.9969
vn -0.9972 -0.0752 -0.0000
vn 0.0000 -0.0792 -0.9969
vn 0.0000 1.0000 0.0000
vn 0.0000 -1.0000 0.0000
usemtl Material.003
s 1
f 1/1/1 3/2/1 4/3/1
f 5/4/2 3/2/2 2/5/2
f 7/6/3 6/7/3 5/4/3
f 7/6/4 4/8/4 8/9/4
f 1/10/5 5/4/5 2/11/5
f 8/9/6 3/12/6 6/7/6
f 1/1/1 2/5/1 3/2/1
f 5/4/2 6/7/2 3/2/2
f 7/6/3 8/9/3 6/7/3
f 7/6/4 1/13/4 4/8/4
f 1/10/5 7/6/5 5/4/5
f 8/9/6 4/14/6 3/12/6
o Cube.002
v 1.461890 0.608801 0.583133
v 1.461890 0.608801 0.832067
v 1.415333 -0.008874 0.782966
v 1.415333 -0.008874 0.632234
v 1.225853 0.608801 0.832067
v 1.272411 -0.008874 0.782966
v 1.225853 0.608801 0.583133
v 1.272411 -0.008874 0.632234
vt 0.375000 0.250000
vt 0.625000 0.000000
vt 0.375000 0.000000
vt 0.625000 0.500000
vt 0.625000 0.250000
vt 0.375000 0.750000
vt 0.375000 0.500000
vt 0.375000 1.000000
vt 0.625000 0.750000
vt 0.125000 0.750000
vt 0.125000 0.500000
vt 0.875000 0.500000
vt 0.625000 1.000000
vt 0.875000 0.750000
vn 0.9972 -0.0752 0.0000
vn 0.0000 -0.0792 0.9969
vn -0.9972 -0.0752 0.0000
vn 0.0000 -0.0792 -0.9969
vn 0.0000 1.0000 0.0000
vn 0.0000 -1.0000 0.0000
usemtl Material.003
s 1
f 10/15/7 12/16/7 9/17/7
f 10/15/8 14/18/8 11/19/8
f 15/20/9 14/18/9 13/21/9
f 9/22/10 16/23/10 15/20/10
f 9/24/11 13/21/11 10/25/11
f 16/23/12 11/26/12 14/18/12
f 10/15/7 11/19/7 12/16/7
f 10/15/8 13/21/8 14/18/8
f 15/20/9 16/23/9 14/18/9
f 9/22/10 12/27/10 16/23/10
f 9/24/11 15/20/11 13/21/11
f 16/23/12 12/28/12 11/26/12
o Cube.003
v -1.850314 0.608801 0.578453
v -1.850314 0.608801 0.827386
v -1.896870 -0.008874 0.778282
v -1.896870 -0.008874 0.627552
v -2.086349 0.608801 0.827386
v -2.039793 -0.008874 0.778282
v -2.086349 0.608801 0.578453
v -2.039793 -0.008874 0.627552
vt 0.375000 0.000000
vt 0.625000 0.250000
vt 0.625000 0.000000
vt 0.375000 0.500000
vt 0.375000 0.250000
vt 0.375000 0.750000
vt 0.625000 0.500000
vt 0.375000 1.000000
vt 0.625000 0.750000
vt 0.125000 0.750000
vt 0.125000 0.500000
vt 0.875000 0.500000
vt 0.625000 1.000000
vt 0.875000 0.750000
vn 0.9972 -0.0752 0.0000
vn 0.0000 -0.0792 0.9969
vn -0.9972 -0.0752 0.0000
vn 0.0000 -0.0792 -0.9969
vn 0.0000 1.0000 0.0000
vn 0.0000 -1.0000 0.0000
usemtl Material.003
s 1
f 17/29/13 19/30/13 20/31/13
f 21/32/14 19/30/14 18/33/14
f 23/34/15 22/35/15 21/32/15
f 17/36/16 24/37/16 23/34/16
f 17/38/17 21/32/17 18/39/17
f 24/37/18 19/40/18 22/35/18
f 17/29/13 18/33/13 19/30/13
f 21/32/14 22/35/14 19/30/14
f 23/34/15 24/37/15 22/35/15
f 17/36/16 20/41/16 24/37/16
f 17/38/17 23/34/17 21/32/17
f 24/37/18 20/42/18 19/40/18
o Cube.004
v -1.846109 0.608801 -0.735713
v -1.846109 0.608801 -0.486779
v -1.892667 -0.008873 -0.535880
v -1.892667 -0.008873 -0.686612
v -2.082147 0.608801 -0.486779
v -2.035591 -0.008873 -0.535880
v -2.082147 0.608801 -0.735713
v -2.035591 -0.008873 -0.686612
vt 0.375000 0.250000
vt 0.625000 0.000000
vt 0.375000 0.000000
vt 0.375000 0.500000
vt 0.625000 0.250000
vt 0.375000 0.750000
vt 0.625000 0.500000
vt 0.625000 1.000000
vt 0.625000 0.750000
vt 0.125000 0.750000
vt 0.125000 0.500000
vt 0.875000 0.500000
vt 0.375000 1.000000
vt 0.875000 0.750000
vn 0.9972 -0.0752 -0.0000
vn 0.0000 -0.0792 0.9969
vn -0.9972 -0.0752 -0.0000
vn 0.0000 -0.0792 -0.9969
vn 0.0000 1.0000 0.0000
vn 0.0000 -1.0000 0.0000
usemtl Material.002
s 1
f 26/43/19 28/44/19 25/45/19
f 29/46/20 27/47/20 26/43/20
f 31/48/21 30/49/21 29/46/21
f 31/48/22 28/50/22 32/51/22
f 25/52/23 29/46/23 26/53/23
f 32/51/24 27/54/24 30/49/24
f 26/43/19 27/47/19 28/44/19
f 29/46/20 30/49/20 27/47/20
f 31/48/21 32/51/21 30/49/21
f 31/48/22 25/55/22 28/50/22
f 25/52/23 31/48/23 29/46/23
f 32/51/24 28/56/24 27/54/24
