# Blender v2.92.0 OBJ File: 'room.blend'
# www.blender.org
mtllib room.mtl
o Plane_Plane.001
v -5.447103 -0.000601 5.191610
v 4.346698 -0.000601 5.191610
v -5.447103 -0.000601 -4.602190
v 4.346698 -0.000601 -4.602190
v -5.447103 6.078219 5.191610
v -5.447103 6.078219 -4.602190
v 4.346698 6.078219 -4.602190
v -5.635429 -0.188928 -4.790517
v -5.635429 -0.188928 5.191610
v 4.346698 -0.188928 5.191610
v 4.346698 -0.188928 -4.790517
v -5.635429 6.078219 -4.790517
v -5.635429 6.078219 5.191610
v 4.346698 6.078219 -4.790517
vt 0.000000 1.000000
vt 1.000000 1.000000
vt 0.000000 1.000000
vt 0.000000 0.000000
vt 0.000000 0.000000
vt 1.000000 0.000000
vt 0.000000 1.000000
vt 0.000000 0.000000
vt 1.000000 1.000000
vt 0.000000 1.000000
vt 0.000000 0.000000
vt 1.000000 1.000000
vt 1.000000 1.000000
vt 1.000000 0.000000
vn 0.0000 0.0000 -1.0000
vn -1.0000 0.0000 0.0000
vn 0.0000 1.0000 0.0000
vn 0.0000 0.0000 1.0000
vn 1.0000 0.0000 0.0000
vn 0.0000 -1.0000 0.0000
usemtl wall
s off
f 6/1/1 4/2/1 3/3/1
f 5/4/2 3/3/2 1/5/2
f 10/6/3 8/7/3 9/8/3
f 11/9/4 12/10/4 8/7/4
f 8/7/5 13/11/5 9/8/5
f 4/2/2 14/12/2 11/9/2
f 6/1/6 14/12/6 7/13/6
f 1/5/1 10/6/1 9/8/1
f 1/5/1 13/11/1 5/4/1
f 6/1/6 13/11/6 12/10/6
f 4/2/2 10/6/2 2/14/2
f 6/1/1 7/13/1 4/2/1
f 5/4/2 6/1/2 3/3/2
f 10/6/3 11/9/3 8/7/3
f 11/9/4 14/12/4 12/10/4
f 8/7/5 12/10/5 13/11/5
f 4/2/2 7/13/2 14/12/2
f 6/1/6 12/10/6 14/12/6
f 1/5/1 2/14/1 10/6/1
f 1/5/1 9/8/1 13/11/1
f 6/1/6 5/4/6 13/11/6
f 4/2/2 11/9/2 10/6/2
usemtl floor
f 3/3/6 2/14/6 1/5/6
f 3/3/6 4/2/6 2/14/6
o Plane.001_Plane.002
v -1.717383 2.490083 -4.561837
v -4.450480 2.497839 -4.555894
v -1.709627 5.223186 -4.561849
v -4.442724 5.230942 -4.555905
v -1.709703 5.223186 -4.596842
v -1.717459 2.490083 -4.596831
v -4.450556 2.497839 -4.590888
v -4.442800 5.230942 -4.590899
v -1.709703 5.223186 -4.596842
v -1.717459 2.490083 -4.596831
v -4.450556 2.497839 -4.590888
v -4.442800 5.230942 -4.590899
vt 0.000000 1.000000
vt 1.000000 0.000000
vt 0.000000 0.000000
vt 1.000000 1.000000
vt 0.000000 1.000000
vt 1.000000 1.000000
vt 0.000000 1.000000
vt 1.000000 1.000000
vt 0.000000 0.000000
vt 1.000000 0.000000
vt 1.000000 0.000000
vt 0.000000 0.000000
vn 0.0022 -0.0000 1.0000
vn 0.0000 0.0000 1.0000
vn 1.0000 -0.0028 -0.0022
vn 0.0028 1.0000 0.0000
vn -0.0028 -1.0000 -0.0000
vn -1.0000 0.0028 0.0022
vn -0.0022 0.0000 -1.0000
usemtl picture
s off
f 17/15/7 16/16/7 15/17/7
f 22/18/8 23/19/8 26/20/8
f 15/17/9 19/21/9 17/15/9
f 17/15/10 22/18/10 18/22/10
f 16/16/11 20/23/11 15/17/11
f 18/22/12 21/24/12 16/16/12
f 25/25/13 23/19/13 24/26/13
f 20/23/8 25/25/8 24/26/8
f 21/24/8 26/20/8 25/25/8
f 19/21/8 24/26/8 23/19/8
f 17/15/7 18/22/7 16/16/7
f 22/18/8 19/21/8 23/19/8
f 15/17/9 20/23/9 19/21/9
f 17/15/10 19/21/10 22/18/10
f 16/16/11 21/24/11 20/23/11
f 18/22/12 22/18/12 21/24/12
f 25/25/13 26/20/13 23/19/13
f 20/23/8 21/24/8 25/25/8
f 21/24/8 22/18/8 26/20/8
f 19/21/8 20/23/8 24/26/8
o Plane.002_Plane
v -5.422909 0.007884 4.053741
v -5.416588 0.007884 2.053751
v -5.426589 3.938673 4.053729
v -5.420268 3.938673 2.053739
v -5.398111 3.938700 4.053819
v -5.394432 0.007911 4.053831
v -5.388110 0.007911 2.053841
v -5.391790 3.938700 2.053829
vt 0.000000 1.000000
vt 1.000000 0.000000
vt 0.000000 0.000000
vt 1.000000 0.000000
vt 0.000000 1.000000
vt 0.000000 0.000000
vt 1.000000 1.000000
vt 1.000000 1.000000
vn -1.0000 -0.0009 -0.0032
vn 1.0000 0.0009 0.0032
vn -0.0032 0.0000 1.0000
vn -0.0009 1.0000 -0.0000
vn 0.0009 -1.0000 0.0000
vn 0.0032 -0.0000 -1.0000
vn 0.0031 -0.0000 -1.0000
usemtl door.005
s off
f 29/27/14 28/28/14 27/29/14
f 33/30/15 31/31/15 32/32/15
f 27/29/16 31/31/16 29/27/16
f 29/27/17 34/33/17 30/34/17
f 28/28/18 32/32/18 27/29/18
f 30/34/19 33/30/19 28/28/19
f 29/27/14 30/34/14 28/28/14
f 33/30/15 34/33/15 31/31/15
f 27/29/16 32/32/16 31/31/16
f 29/27/17 31/31/17 34/33/17
f 28/28/18 33/30/18 32/32/18
f 30/34/20 34/33/20 33/30/20
