# Blender v2.92.0 OBJ File: 'room.blend'
# www.blender.org
mtllib wall.mtl
o Plane_Plane.001
v -5.447103 -0.000601 5.191610
v -5.447103 -0.000601 -4.602190
v 4.346698 -0.000601 -4.602190
v -5.447103 6.078219 5.191610
v -5.447103 6.078219 -4.602190
v 4.346698 6.078219 -4.602190
v -5.635429 -0.188928 -4.790517
v -5.635429 -0.188928 5.191610
v 4.346698 -0.188928 -4.790517
v -5.635429 6.078219 -4.790517
v -5.635429 6.078219 5.191610
v 4.346698 6.078219 -4.790517
vt 0.000000 1.000000
vt 1.000000 1.000000
vt 0.000000 1.000000
vt 0.000000 0.000000
vt 0.000000 0.000000
vt 1.000000 1.000000
vt 0.000000 1.000000
vt 0.000000 1.000000
vt 0.000000 0.000000
vt 0.000000 0.000000
vt 1.000000 1.000000
vt 1.000000 1.000000
vn 0.0000 0.0000 -1.0000
vn -1.0000 0.0000 0.0000
vn 0.0000 0.0000 1.0000
vn 1.0000 0.0000 0.0000
vn 0.0000 -1.0000 0.0000
usemtl wall
s off
f 5/1/1 3/2/1 2/3/1
f 4/4/2 2/3/2 1/5/2
f 9/6/3 10/7/3 7/8/3
f 7/8/4 11/9/4 8/10/4
f 3/2/2 12/11/2 9/6/2
f 5/1/5 12/11/5 6/12/5
f 1/5/1 11/9/1 4/4/1
f 5/1/5 11/9/5 10/7/5
f 5/1/1 6/12/1 3/2/1
f 4/4/2 5/1/2 2/3/2
f 9/6/3 12/11/3 10/7/3
f 7/8/4 10/7/4 11/9/4
f 3/2/2 6/12/2 12/11/2
f 5/1/5 10/7/5 12/11/5
f 1/5/1 8/10/1 11/9/1
f 5/1/5 4/4/5 11/9/5
